<svg width="1426" height="70" viewBox="0 0 1426 70" fill="none" xmlns="http://www.w3.org/2000/svg">
<path d="M22.551 15.1021C17.3341 15.276 12.3945 17.493 8.79695 21.2751C5.19941 25.0572 3.2321 30.1015 3.31911 35.3206C3.40612 40.5397 5.54048 45.5156 9.26209 49.1757C12.9837 52.8358 17.9945 54.8869 23.2143 54.8869C28.4341 54.8869 33.4449 52.8358 37.1665 49.1757C40.8881 45.5156 43.0225 40.5397 43.1095 35.3206C43.1965 30.1015 41.2292 25.0572 37.6317 21.2751C34.0341 17.493 29.0945 15.276 23.8776 15.1021H22.551ZM50.4082 15.1021C45.1913 15.276 40.2516 17.493 36.6541 21.2751C33.0566 25.0572 31.0892 30.1015 31.1763 35.3206C31.2633 40.5397 33.3976 45.5156 37.1192 49.1757C40.8408 52.8358 45.8516 54.8869 51.0715 54.8869C56.2913 54.8869 61.3021 52.8358 65.0237 49.1757C68.7453 45.5156 70.8796 40.5397 70.9667 35.3206C71.0537 30.1015 69.0864 25.0572 65.4888 21.2751C61.8913 17.493 56.9516 15.276 51.7347 15.1021H50.4082ZM78.2653 15.1021C73.0484 15.276 68.1088 17.493 64.5112 21.2751C60.9137 25.0572 58.9464 30.1015 59.0334 35.3206C59.1204 40.5397 61.2548 45.5156 64.9764 49.1757C68.698 52.8358 73.7088 54.8869 78.9286 54.8869C84.1484 54.8869 89.1592 52.8358 92.8808 49.1757C96.6024 45.5156 98.7368 40.5397 98.8238 35.3206C98.9108 30.1015 96.9435 25.0572 93.346 21.2751C89.7484 17.493 84.8088 15.276 79.5919 15.1021H78.2653ZM106.122 15.1021C100.906 15.276 95.9659 17.493 92.3684 21.2751C88.7708 25.0572 86.8035 30.1015 86.8905 35.3206C86.9776 40.5397 89.1119 45.5156 92.8335 49.1757C96.5551 52.8358 101.566 54.8869 106.786 54.8869C112.006 54.8869 117.016 52.8358 120.738 49.1757C124.46 45.5156 126.594 40.5397 126.681 35.3206C126.768 30.1015 124.801 25.0572 121.203 21.2751C117.606 17.493 112.666 15.276 107.449 15.1021H106.122Z" stroke="#8D8A8B" stroke-width="2"/>
<g clip-path="url(#clip0_117_2929)">
<path d="M285.889 36.1598C285.82 39.9729 286.644 41.9926 289.787 41.9926C292.925 41.9926 293.375 38.5521 293.375 35.9341C293.375 33.3143 292.78 30.7711 289.483 30.7711C287.46 30.7711 285.967 32.3427 285.889 36.1598ZM279.53 52.0939V26.2831H285.967C285.967 26.2831 285.967 26.6569 285.967 27.3301C285.967 28.7267 286.53 28.1508 286.984 27.6065C287.06 27.5155 288.495 25.7596 291.726 25.7596C294.947 25.7596 299.957 28.0033 299.957 35.9341C299.957 42.0686 296.968 46.5566 291.805 46.5566C288.96 46.5566 287.315 45.4364 286.939 44.9844C286.563 44.5386 286.04 44.4609 286.04 44.9844C286.04 45.509 286.04 52.0939 286.04 52.0939H279.53Z" fill="#8D8A8B"/>
<path d="M229.779 17.9061H236.737C236.737 17.9061 236.737 33.0166 236.737 36.1599C236.737 39.2997 235.389 45.8851 225.74 45.8851C216.089 45.8851 215.042 39.7472 215.042 36.3085V32.9423H221.776C221.776 32.9423 221.776 34.2139 221.776 36.2324C221.776 38.2521 223.123 40.1215 225.665 40.1215C228.208 40.1215 229.779 38.7008 229.779 36.3085C229.779 33.9144 229.779 17.9061 229.779 17.9061Z" fill="#8D8A8B"/>
<path d="M251.289 33.3909C251.289 31.5186 250.243 29.7236 247.849 29.7236C245.53 29.7236 244.707 31.3678 244.707 33.3909H251.289ZM247.178 25.535C252.643 25.535 257.428 27.629 257.428 37.28H244.487C244.487 40.3472 245.758 41.6194 248.002 41.6194C250.247 41.6194 250.994 39.8226 250.994 39.8226H257.355C257.355 42.5915 253.539 46.332 247.777 46.2577C241.196 46.2577 237.978 41.3948 237.978 36.3821C237.978 31.3678 240.819 25.535 247.178 25.535Z" fill="#8D8A8B"/>
<path d="M271.977 33.3909C271.977 31.5186 270.93 29.7236 268.536 29.7236C266.218 29.7236 265.393 31.3678 265.393 33.3909H271.977ZM267.866 25.535C273.33 25.535 278.115 27.629 278.115 37.28H265.174C265.174 40.3472 266.446 41.6194 268.692 41.6194C270.934 41.6194 271.683 39.8226 271.683 39.8226H278.044C278.044 42.5915 274.227 46.332 268.467 46.2577C261.882 46.2577 258.665 41.3948 258.665 36.3821C258.665 31.3678 261.509 25.535 267.866 25.535Z" fill="#8D8A8B"/>
<path d="M295.697 48.9996C295.697 47.9773 296.529 47.1469 297.555 47.1469C298.577 47.1469 299.407 47.9773 299.407 48.9996C299.407 50.0201 298.577 50.8557 297.555 50.8557C296.529 50.8557 295.697 50.0201 295.697 48.9996ZM295.483 48.9996C295.483 50.1433 296.409 51.0717 297.555 51.0717C298.693 51.0717 299.625 50.1433 299.625 48.9996C299.625 47.8558 298.693 46.9275 297.555 46.9275C296.409 46.9275 295.483 47.8558 295.483 48.9996Z" fill="#8D8A8B"/>
<path d="M298.385 50.0592L297.954 49.0433C298.091 48.9961 298.136 48.9627 298.209 48.8849C298.303 48.7836 298.363 48.6235 298.363 48.4784C298.363 48.1121 298.081 47.8627 297.673 47.8627H296.809V50.0592H297.065V49.1078H297.69L298.1 50.0592H298.385ZM297.058 48.8849V48.1017H297.668C297.922 48.1017 298.084 48.2468 298.084 48.4714C298.084 48.7266 297.912 48.8849 297.632 48.8849H297.058Z" fill="#8D8A8B"/>
</g>
<path d="M425.001 62.4813C409.847 62.4813 397.518 50.1522 397.518 34.9987C397.518 34.2166 397.558 33.4435 397.625 32.6794L420.599 34.1139L410.656 40.9869C410.522 41.0807 410.433 41.2371 410.433 41.4114C410.433 41.6974 410.665 41.9343 410.951 41.9343H451.599C448.516 53.7405 437.759 62.4818 425.001 62.4818M425.001 7.51552C440.159 7.51552 452.483 19.8445 452.483 34.9981C452.483 35.7757 452.443 36.5444 452.381 37.304H452.367L429.393 35.8426L439.363 29.0099C439.502 28.9161 439.587 28.7596 439.587 28.5853C439.587 28.2949 439.354 28.0625 439.068 28.0625H398.407C401.486 16.2563 412.242 7.5149 425 7.5149M464.401 38.068L456.88 37.5899L455.973 37.5318C456.04 36.6961 456.085 35.8514 456.085 34.998C456.085 17.8607 442.142 3.91748 425 3.91748C410.244 3.91748 397.869 14.2539 394.706 28.0619H387.838C387.449 28.0619 387.105 28.2451 386.886 28.5311L385.13 30.9576C385.049 31.0604 385 31.19 385 31.3286C385 31.6592 385.268 31.9274 385.603 31.9274L393.093 32.3921L394.031 32.4547C393.964 33.2949 393.92 34.1395 393.92 34.9975C393.92 52.1348 407.863 66.0826 425 66.0826C439.756 66.0826 452.135 55.7418 455.294 41.9337H462.167C462.556 41.9337 462.9 41.7504 463.119 41.4644L464.875 39.0379C464.955 38.9351 465 38.8055 465 38.6669C465 38.3363 464.732 38.0681 464.401 38.0681" fill="#8D8A8B"/>
<g clip-path="url(#clip1_117_2929)">
<path fill-rule="evenodd" clip-rule="evenodd" d="M555.619 7.69263V16.0875H586.688V20.3201V24.553H555.619V32.9479H589.923C590.71 32.9479 591.229 32.7296 591.765 32.1904L600.797 23.405L609.829 32.1904C610.365 32.7296 610.884 32.9479 611.671 32.9479H645.975V24.553H614.906V20.3201V16.0875H645.975V7.69263H611.671C610.884 7.69263 610.365 7.91091 609.829 8.45014L600.797 17.2356L591.765 8.45014C591.229 7.91091 590.71 7.69263 589.923 7.69263H555.619Z" fill="#7A7A7A"/>
<path fill-rule="evenodd" clip-rule="evenodd" d="M550 51.8004V55.2696L562.768 55.3514C563.073 55.3514 563.242 55.4214 563.436 55.6152L564.794 56.7887C564.893 56.888 564.939 56.9515 564.939 57.0538C564.939 57.1562 564.893 57.2199 564.794 57.3192L563.436 58.4927C563.242 58.6865 563.073 58.7565 562.768 58.7565L550 58.8383V62.3075H564.367C564.88 62.3075 565.133 62.2236 565.462 61.8945L569.568 57.6509C569.722 57.4964 569.823 57.2549 569.823 57.0538C569.823 56.8527 569.722 56.6115 569.568 56.4569L565.462 52.2131C565.133 51.884 564.88 51.8004 564.367 51.8004H550Z" fill="#7A7A7A"/>
<path d="M582.413 51.8004C582.187 51.8004 582.059 51.8457 581.971 51.9343L571.891 62.0549C571.786 62.1612 571.833 62.3075 571.998 62.3075H576.899L582.096 56.9156C582.204 56.8078 582.285 56.7627 582.413 56.7627C582.541 56.7627 582.622 56.8078 582.73 56.9156L587.928 62.3075H592.829C592.993 62.3075 593.041 62.1612 592.935 62.0549L582.856 51.9343C582.767 51.8457 582.639 51.8004 582.413 51.8004Z" fill="#7A7A7A"/>
<path fill-rule="evenodd" clip-rule="evenodd" d="M614.91 51.8004V55.2696L602.142 55.3514C601.837 55.3514 601.668 55.4214 601.475 55.6152L600.117 56.7887C600.017 56.888 599.972 56.9515 599.972 57.0538C599.972 57.1562 600.017 57.2199 600.117 57.3192L601.475 58.4927C601.668 58.6865 601.837 58.7565 602.142 58.7565L614.91 58.8383V62.3075H600.543C600.03 62.3075 599.777 62.2236 599.448 61.8945L595.343 57.6509C595.188 57.4964 595.087 57.2549 595.087 57.0538C595.087 56.8527 595.188 56.6115 595.343 56.4569L599.448 52.2131C599.777 51.884 600.03 51.8004 600.543 51.8004H614.91Z" fill="#7A7A7A"/>
<path d="M624.925 51.8004H620.909V62.3075H624.925V51.8004Z" fill="#7A7A7A"/>
<path d="M639.422 51.8004C639.196 51.8004 639.068 51.8457 638.979 51.9343L628.9 62.0549C628.794 62.1612 628.842 62.3075 629.007 62.3075H633.907L639.105 56.9156C639.213 56.8078 639.294 56.7627 639.422 56.7627C639.55 56.7627 639.631 56.8078 639.739 56.9156L644.936 62.3075H649.837C650.002 62.3075 650.05 62.1612 649.944 62.0549L639.865 51.9343C639.776 51.8457 639.648 51.8004 639.422 51.8004Z" fill="#7A7A7A"/>
</g>
<path fill-rule="evenodd" clip-rule="evenodd" d="M781 34.9746L764.839 4.60718H760.28L744.17 34.9746L754.555 54.5075L756.834 50.1838L748.78 34.9746L762.559 8.98178L776.39 34.9746L760.28 65.3929H764.839L781 34.9746ZM771.78 34.9746L761.445 15.4926L759.115 19.8163L767.221 34.9746L753.39 61.0183L739.559 34.9746L755.72 4.60718H751.11L735 34.9746L751.11 65.3929H755.669L771.78 34.9746Z" fill="#8D8A8B"/>
<path fill-rule="evenodd" clip-rule="evenodd" d="M929.037 61.1756C923.362 56.3101 906.503 42.4652 898.5 42.4652C890.493 42.4652 873.647 56.3007 867.969 61.1697C867.935 60.0195 867.903 59.3209 867.903 58.2965C867.903 58.2965 867.764 56.6053 869.26 54.9129C881.569 43.7601 894.474 38.303 894.871 38.136C898.719 36.5095 898.502 36.8153 898.499 30.288C898.499 30.288 898.671 30.2774 898.78 30.2892C904.199 30.7796 918.77 44.9209 927.393 54.4813C927.408 54.4977 929.095 56.45 929.095 58.5082C929.097 59.4726 929.069 60.424 929.037 61.1756ZM928.805 53.1946C927.889 52.1785 906.312 28.3604 898.5 28.3604C890.691 28.3604 869.112 52.1785 868.197 53.1935L868.196 53.1946C868.106 53.2946 866 55.7021 866 58.5094C866 60.6945 866.145 62.8938 866.147 62.915C866.152 63.0161 866.202 63.9453 866.719 64.1981C866.802 64.2393 866.893 64.2604 866.986 64.2604C867.177 64.2604 867.391 64.1746 867.623 64.0052C867.856 63.7994 889.838 44.3834 898.5 44.3834C907.163 44.3834 929.146 63.7994 929.366 63.9958C929.606 64.1722 929.823 64.2604 930.017 64.2604C930.111 64.2604 930.199 64.2393 930.284 64.1993C930.799 63.9476 930.849 63.0173 930.854 62.9126C930.855 62.8962 931 60.6969 931 58.5117C931 55.7021 928.894 53.2946 928.805 53.1946ZM929.007 38.5218C923.338 33.6622 906.495 19.8314 898.501 19.8314C890.503 19.8314 873.673 33.6539 868.001 38.5171C867.966 37.3692 867.935 36.6694 867.935 35.6474C867.935 35.6474 867.796 33.9574 869.291 32.2673C881.588 21.1251 894.48 15.6739 894.875 15.5069C898.72 13.8816 898.504 14.1873 898.5 7.66711C898.5 7.66711 898.671 7.65652 898.781 7.66829C904.195 8.15871 918.751 22.2859 927.365 31.8357C927.38 31.8522 929.065 33.8021 929.065 35.8591C929.067 36.8211 929.037 37.7714 929.007 38.5218ZM928.775 30.5491C927.859 29.5341 906.303 5.7395 898.5 5.7395C890.699 5.7395 869.141 29.5341 868.228 30.5479L868.226 30.5491C868.137 30.649 866.032 33.0541 866.032 35.8591C866.032 38.0419 866.178 40.2389 866.179 40.26C866.183 40.3612 866.234 41.2891 866.749 41.542C866.833 41.5831 866.923 41.6031 867.016 41.6031C867.208 41.6031 867.421 41.5173 867.652 41.3479C867.886 41.1421 889.846 21.7461 898.5 21.7461C907.155 21.7461 929.116 41.1421 929.336 41.3385C929.575 41.5149 929.791 41.6019 929.985 41.6019C930.079 41.6019 930.167 41.5819 930.252 41.5408C930.766 41.2891 930.818 40.36 930.821 40.2553C930.822 40.2389 930.967 38.0419 930.967 35.8591C930.968 33.0541 928.864 30.649 928.775 30.5491Z" fill="#8D8A8B"/>
<path fill-rule="evenodd" clip-rule="evenodd" d="M1066.43 5.52035C1077.02 11.088 1084.25 22.1882 1084.25 34.9834C1084.25 47.7785 1077.02 58.9137 1066.43 64.4472V60.6427C1070.48 58.2207 1073.9 54.8319 1076.4 50.8209L1066.43 46.7757V40.6201L1077.36 49.1619C1079.65 44.9426 1080.93 40.1354 1080.93 34.9825C1080.93 24.1237 1075.11 14.5801 1066.43 9.3231V5.52035ZM1051.03 1.75085C1056.57 1.75085 1061.79 3.1001 1066.43 5.52035V9.32485C1062.18 6.7646 1057.19 5.24385 1051.93 5.0706L1055.74 32.2866L1066.43 40.621V46.7766L1050.96 40.5169L1035.6 46.8107V40.6892L1046.36 32.2857L1050.13 5.06973C1044.81 5.24298 1039.86 6.7646 1035.6 9.3231V5.52035C1040.21 3.1001 1045.46 1.75085 1051.03 1.75085ZM1066.43 64.4472C1061.79 66.8675 1056.57 68.25 1051.03 68.25C1045.46 68.25 1040.21 66.8675 1035.6 64.4813V60.6427C1040.1 63.3736 1045.39 64.9302 1051.03 64.9302C1056.64 64.9302 1061.9 63.3736 1066.43 60.6427V64.4472ZM1035.6 64.4813C1024.98 58.9137 1017.75 47.7785 1017.75 34.9834C1017.75 22.1882 1024.98 11.088 1035.6 5.52035V9.32485C1026.88 14.581 1021.07 24.0905 1021.07 34.9834C1021.07 40.1354 1022.39 45.0126 1024.67 49.231L1035.6 40.6892V46.8107L1025.67 50.89C1028.16 54.8686 1031.55 58.2216 1035.6 60.6427V64.4813Z" fill="#8D8A8B"/>
<path fill-rule="evenodd" clip-rule="evenodd" d="M1222.4 40.0054C1223.05 43.3499 1221.29 46.128 1219.84 48.8244C1218.22 51.3333 1215.55 53.4896 1212.34 53.1669C1205.14 53.059 1198.1 51.9533 1191.57 49.9837C1191.27 49.903 1190.98 49.7136 1190.81 49.4444C1190.68 49.0664 1190.87 48.7157 1191.14 48.4737C1197.1 43.6454 1204.19 41.4075 1211.21 39.06C1213.82 38.305 1216.6 37.4956 1219.54 37.8736C1220.75 38.0358 1221.97 38.8724 1222.4 40.0054ZM1246.97 25.7109C1250.31 28.4617 1253.33 32.2114 1252.31 36.7424C1250.64 43.4315 1243.36 46.9917 1237.56 49.2568C1234.4 50.3091 1231.22 51.3886 1227.77 51.7122C1227.55 51.685 1227.2 51.7384 1227.14 51.4149L1227.23 51.0378C1232.13 45.508 1235.86 39.3057 1239.12 33.0208C1240.63 30.1884 1242.03 27.2762 1243.33 24.4166C1243.52 24.2009 1243.71 24.093 1243.92 24.0123C1245.13 24.1193 1246 25.0637 1246.97 25.7109ZM1199.9 18.5904L1199.79 18.9946C1192.7 27.0587 1188.04 36.4179 1183.61 45.7228C1182.75 46.5322 1181.91 45.4527 1181.13 45.1019C1177.19 42.5133 1173.63 38.3322 1174.66 33.3698C1176.3 26.8973 1182.96 23.4449 1188.52 21.0992C1191.81 19.8584 1195.24 18.8605 1198.85 18.294C1199.23 18.2931 1199.71 18.2396 1199.9 18.5904ZM1235.1 19.8847C1235.51 20.1004 1235.99 20.1811 1236.23 20.5853C1236.45 21.0439 1236.02 21.3403 1235.78 21.6376C1230.19 26.0064 1223.8 28.4346 1217.27 30.5655C1213.96 31.3748 1210.61 32.8314 1206.92 32.022C1206.05 31.8063 1205.27 31.2398 1204.79 30.4032C1203.87 27.8681 1205.11 25.2251 1206.19 23.0135C1207.62 20.2355 1210.15 16.9716 1213.66 16.9181C1221.21 16.8637 1228.33 17.9967 1235.1 19.8847ZM1244.43 20.1004C1250.15 23.2292 1256.63 28.7309 1255.95 36.0672C1255.17 42.8641 1248.83 47.6108 1243.17 50.4704C1226.63 58.3731 1203.41 58.6151 1186.34 51.7113C1180.56 49.3112 1174.09 45.1844 1171.66 38.9803C1169.8 33.8828 1172.07 28.5696 1175.87 25.0365C1183.83 17.8082 1193.97 15.3274 1204.41 13.8972C1215.74 12.5213 1227.66 13.7349 1237.8 17.2145C1240.06 18.0511 1242.3 18.9683 1244.43 20.1004Z" fill="#8D8A8B"/>
<g clip-path="url(#clip2_117_2929)">
<path d="M1390.16 35.3908L1386.46 42.6672H1386.38L1386.19 35.3908H1383.09L1382.97 35.6526L1383.24 35.8148C1383.5 35.9955 1383.57 36.1789 1383.6 36.6839L1384.02 45.5139H1387.47L1393.05 35.3908H1390.16ZM1379.13 40.6311C1378.79 41.6266 1378.51 42.2671 1378.11 42.6898C1377.8 43.022 1377.38 43.2599 1376.42 43.2599C1375.66 43.2599 1375.24 42.9516 1375.24 42.3682C1375.24 41.992 1375.34 41.4206 1375.74 40.3082C1376.09 39.3141 1376.36 38.6735 1376.77 38.2509C1377.08 37.9186 1377.5 37.6794 1378.46 37.6794C1379.21 37.6794 1379.63 37.9877 1379.63 38.5685C1379.64 38.9499 1379.54 39.5214 1379.13 40.6311ZM1378.97 35.2659H1378.65C1376.74 35.2659 1375.65 35.7802 1374.76 36.7305C1373.65 37.9066 1372.6 41.087 1372.62 42.7695C1372.64 44.4853 1373.75 45.6747 1376.09 45.6747H1376.43C1378.34 45.6747 1379.43 45.1604 1380.32 44.2102C1381.44 43.0313 1382.46 39.8523 1382.44 38.1711C1382.42 36.4567 1381.31 35.2659 1378.97 35.2659ZM1369.61 39.0655C1369.43 39.4975 1369.24 39.6011 1368.99 39.7035C1368.82 39.7699 1368.47 39.7938 1368.12 39.7938H1366.79L1367.51 37.702H1369.12C1369.61 37.702 1369.8 37.9532 1369.81 38.2389C1369.81 38.421 1369.73 38.7546 1369.61 39.0655ZM1369.37 35.3908H1365L1364.91 35.6526L1365.09 35.8267C1365.27 36.0101 1365.27 36.2281 1365.1 36.6959L1362.05 45.5139H1364.84L1366.03 42.0133L1366.98 42.0146L1368.03 45.5139H1370.83L1369.51 41.9322C1370.28 41.8086 1370.66 41.5893 1371.05 41.2478C1371.57 40.7667 1371.94 40.0915 1372.24 39.0974C1372.68 37.6555 1372.41 36.8315 1372.13 36.4088C1371.74 35.8267 1370.92 35.3908 1369.37 35.3908ZM1398.65 41.4538L1399.42 39.3367H1395.87L1396.42 37.7206H1400.27L1401.12 35.3842H1393.84L1393.74 35.6819L1393.91 35.8533C1394.1 36.0354 1394.09 36.252 1393.93 36.7225L1390.9 45.5099H1397.7L1398.52 43.1576H1394.55L1395.14 41.4538H1398.65ZM1406.81 39.0655C1406.64 39.4975 1406.45 39.6011 1406.2 39.7035C1406.03 39.7699 1405.67 39.7938 1405.33 39.7938H1404L1404.72 37.702H1406.33C1406.81 37.702 1407.01 37.9532 1407.01 38.2389C1407.02 38.421 1406.93 38.7546 1406.81 39.0655ZM1406.57 35.3908H1402.2L1402.12 35.6526L1402.29 35.8267C1402.48 36.0101 1402.47 36.2281 1402.31 36.6959L1399.25 45.5139H1402.05L1403.24 42.0146H1404.18L1405.23 45.5139H1408.04L1406.72 41.9322C1407.48 41.8086 1407.87 41.5893 1408.25 41.2478C1408.78 40.7667 1409.14 40.0915 1409.45 39.0974C1409.89 37.6555 1409.62 36.8315 1409.34 36.4088C1408.95 35.8267 1408.13 35.3908 1406.57 35.3908ZM1412.3 48.976C1404.63 52.9378 1394.41 55.1201 1383.5 55.1201C1372.59 55.1201 1362.37 52.9378 1354.7 48.976C1347.33 45.1644 1343.26 40.2005 1343.26 35.0014C1343.26 29.7983 1347.33 24.8344 1354.7 21.0255C1362.37 17.065 1372.59 14.8801 1383.5 14.8801C1394.41 14.8801 1404.63 17.065 1412.3 21.0255C1419.68 24.8344 1423.74 29.7983 1423.74 35.0014C1423.74 40.2005 1419.68 45.1644 1412.3 48.976ZM1413.34 19.016C1405.36 14.8907 1394.76 12.6194 1383.5 12.6194C1372.24 12.6194 1361.64 14.8907 1353.66 19.016C1348.93 21.46 1341 26.7867 1341 35.0014C1341 43.2121 1348.93 48.5401 1353.66 50.9842C1361.64 55.1094 1372.24 57.3807 1383.5 57.3807C1394.76 57.3807 1405.36 55.1094 1413.34 50.9842C1418.07 48.5401 1426 43.2134 1426 35.0014C1426 26.7854 1418.07 21.46 1413.34 19.016ZM1411.23 46.8988C1402.98 51.1596 1392.72 52.7797 1383.5 52.7797C1374.28 52.7797 1364.02 51.1596 1355.77 46.8988C1351.41 44.6408 1345.6 40.4809 1345.6 35.0014C1345.6 29.5165 1351.4 25.3607 1355.77 23.104C1364.02 18.8432 1374.28 17.2231 1383.5 17.2231C1392.72 17.2231 1402.98 18.8405 1411.23 23.104C1415.6 25.3607 1421.4 29.5165 1421.4 35.0014C1421.4 40.4836 1415.6 44.6408 1411.23 46.8988ZM1411.66 22.2734C1403.28 17.9421 1392.85 16.2848 1383.5 16.2848C1374.15 16.2848 1363.72 17.9435 1355.34 22.2734C1350.64 24.7028 1344.67 29.0886 1344.67 35.0014C1344.67 40.9089 1350.64 45.2973 1355.34 47.7294C1363.72 52.0567 1374.15 53.7153 1383.5 53.7153C1392.85 53.7153 1403.28 52.0594 1411.66 47.7294C1416.36 45.2973 1422.33 40.9089 1422.33 35.0014C1422.33 29.0886 1416.36 24.7028 1411.66 22.2734ZM1362.37 36.6959L1354.74 39.2077L1353.8 41.7674H1360.54L1361.42 39.3553H1356.75L1362.05 37.5611L1362.37 36.6959ZM1392.77 25.4803H1393.87C1394.63 25.4803 1395.04 25.7328 1395.05 26.3163C1395.06 26.6924 1394.96 27.208 1394.57 28.3178C1394.22 29.3105 1393.95 29.886 1393.55 30.3073C1393.24 30.6396 1392.82 30.7871 1391.86 30.7871H1390.93L1392.77 25.4803ZM1390.34 24.3839L1387.32 33.2019H1391.78C1393.69 33.2019 1394.78 32.778 1395.66 31.829C1396.77 30.6542 1397.79 27.5974 1397.76 25.9149C1397.72 24.1978 1396.62 23.0801 1394.28 23.0801H1390.23L1390.15 23.3406L1390.32 23.512C1390.51 23.6968 1390.5 23.9147 1390.34 24.3839ZM1407.17 26.7097H1400.43L1399.55 29.1192H1404.22L1398.92 30.9187L1398.59 31.7812L1406.23 29.2693L1407.17 26.7097ZM1377.06 33.1966H1379.6L1381.81 26.6485L1383.11 33.1966H1385.65L1389.11 23.0761L1386.46 23.0801L1384.61 28.5809L1383.55 23.0801H1379.97L1379.88 23.3406L1380.06 23.512C1380.25 23.6968 1380.24 23.9147 1380.08 24.3839L1377.06 33.1966ZM1358.86 33.2019L1365.77 33.1993L1366.6 30.7871H1362.59L1365.24 23.0801H1361.78L1361.69 23.3406L1361.86 23.512C1362.05 23.6968 1362.05 23.9147 1361.88 24.3839L1358.86 33.2019ZM1373.56 25.8777H1373.65L1373.7 28.9344H1371.83L1373.56 25.8777ZM1366.49 33.1966H1369.42L1370.7 30.9599H1373.74L1373.77 33.1966H1376.44L1375.86 23.0801H1371.87L1371.78 23.3406L1371.91 23.4695C1372.12 23.6755 1372.03 23.9719 1371.26 25.2052L1366.49 33.1966Z" fill="#8D8A8B"/>
</g>
<defs>
<clipPath id="clip0_117_2929">
<rect width="85" height="34.2728" fill="white" transform="translate(215 17.8635)"/>
</clipPath>
<clipPath id="clip1_117_2929">
<rect width="100" height="54.6149" fill="white" transform="translate(550 7.69263)"/>
</clipPath>
<clipPath id="clip2_117_2929">
<rect width="85" height="44.7613" fill="white" transform="translate(1341 12.6194)"/>
</clipPath>
</defs>
</svg>
